<mxfile host="app.diagrams.net" modified="2022-11-09T19:05:30.085Z" agent="5.0 (Macintosh; Intel Mac OS X 10_15_7) AppleWebKit/537.36 (KHTML, like Gecko) Chrome/106.0.0.0 Safari/537.36" etag="ij1wdwusvcQJe0wyWF1i" version="20.5.3" type="github" pages="3">
  <diagram id="71rXDyOT7njoL2wSLWTb" name="Page-1">
    <mxGraphModel dx="1165" dy="540" grid="1" gridSize="10" guides="1" tooltips="1" connect="1" arrows="1" fold="1" page="1" pageScale="1" pageWidth="1169" pageHeight="827" math="0" shadow="0">
      <root>
        <mxCell id="0" />
        <mxCell id="1" parent="0" />
        <mxCell id="jh5Hf_G05KwYfKJs7neM-41" value="" style="shape=table;startSize=0;container=1;collapsible=0;childLayout=tableLayout;fillColor=#CCE5FF;" vertex="1" parent="1">
          <mxGeometry x="90" y="300" width="810" height="40" as="geometry" />
        </mxCell>
        <mxCell id="jh5Hf_G05KwYfKJs7neM-42" value="" style="shape=tableRow;horizontal=0;startSize=0;swimlaneHead=0;swimlaneBody=0;top=0;left=0;bottom=0;right=0;collapsible=0;dropTarget=0;fillColor=none;points=[[0,0.5],[1,0.5]];portConstraint=eastwest;" vertex="1" parent="jh5Hf_G05KwYfKJs7neM-41">
          <mxGeometry width="810" height="40" as="geometry" />
        </mxCell>
        <mxCell id="jh5Hf_G05KwYfKJs7neM-43" value="&lt;u&gt;&lt;font color=&quot;#660000&quot;&gt;INV_NUM&lt;/font&gt;&lt;/u&gt;" style="shape=partialRectangle;html=1;whiteSpace=wrap;connectable=0;overflow=hidden;fillColor=none;top=0;left=0;bottom=0;right=0;pointerEvents=1;" vertex="1" parent="jh5Hf_G05KwYfKJs7neM-42">
          <mxGeometry width="90" height="40" as="geometry">
            <mxRectangle width="90" height="40" as="alternateBounds" />
          </mxGeometry>
        </mxCell>
        <mxCell id="jh5Hf_G05KwYfKJs7neM-44" value="&lt;u&gt;&lt;font color=&quot;#660000&quot;&gt;PROD_NUM&lt;/font&gt;&lt;/u&gt;" style="shape=partialRectangle;html=1;whiteSpace=wrap;connectable=0;overflow=hidden;fillColor=none;top=0;left=0;bottom=0;right=0;pointerEvents=1;" vertex="1" parent="jh5Hf_G05KwYfKJs7neM-42">
          <mxGeometry x="90" width="90" height="40" as="geometry">
            <mxRectangle width="90" height="40" as="alternateBounds" />
          </mxGeometry>
        </mxCell>
        <mxCell id="jh5Hf_G05KwYfKJs7neM-45" value="SALE_DATE" style="shape=partialRectangle;html=1;whiteSpace=wrap;connectable=0;overflow=hidden;fillColor=none;top=0;left=0;bottom=0;right=0;pointerEvents=1;" vertex="1" parent="jh5Hf_G05KwYfKJs7neM-42">
          <mxGeometry x="180" width="110" height="40" as="geometry">
            <mxRectangle width="110" height="40" as="alternateBounds" />
          </mxGeometry>
        </mxCell>
        <mxCell id="jh5Hf_G05KwYfKJs7neM-46" value="PROD_LABEL" style="shape=partialRectangle;html=1;whiteSpace=wrap;connectable=0;overflow=hidden;fillColor=none;top=0;left=0;bottom=0;right=0;pointerEvents=1;" vertex="1" parent="jh5Hf_G05KwYfKJs7neM-42">
          <mxGeometry x="290" width="120" height="40" as="geometry">
            <mxRectangle width="120" height="40" as="alternateBounds" />
          </mxGeometry>
        </mxCell>
        <mxCell id="jh5Hf_G05KwYfKJs7neM-47" value="" style="shape=partialRectangle;html=1;whiteSpace=wrap;connectable=0;overflow=hidden;fillColor=none;top=0;left=0;bottom=0;right=0;pointerEvents=1;" vertex="1" parent="jh5Hf_G05KwYfKJs7neM-42">
          <mxGeometry x="410" width="100" height="40" as="geometry">
            <mxRectangle width="100" height="40" as="alternateBounds" />
          </mxGeometry>
        </mxCell>
        <mxCell id="jh5Hf_G05KwYfKJs7neM-48" value="VEND_NAME" style="shape=partialRectangle;html=1;whiteSpace=wrap;connectable=0;overflow=hidden;fillColor=none;top=0;left=0;bottom=0;right=0;pointerEvents=1;" vertex="1" parent="jh5Hf_G05KwYfKJs7neM-42">
          <mxGeometry x="510" width="100" height="40" as="geometry">
            <mxRectangle width="100" height="40" as="alternateBounds" />
          </mxGeometry>
        </mxCell>
        <mxCell id="jh5Hf_G05KwYfKJs7neM-49" value="QUANT_SOLD" style="shape=partialRectangle;html=1;whiteSpace=wrap;connectable=0;overflow=hidden;fillColor=none;top=0;left=0;bottom=0;right=0;pointerEvents=1;" vertex="1" parent="jh5Hf_G05KwYfKJs7neM-42">
          <mxGeometry x="610" width="100" height="40" as="geometry">
            <mxRectangle width="100" height="40" as="alternateBounds" />
          </mxGeometry>
        </mxCell>
        <mxCell id="jh5Hf_G05KwYfKJs7neM-50" value="PROD_PRICE" style="shape=partialRectangle;html=1;whiteSpace=wrap;connectable=0;overflow=hidden;fillColor=none;top=0;left=0;bottom=0;right=0;pointerEvents=1;" vertex="1" parent="jh5Hf_G05KwYfKJs7neM-42">
          <mxGeometry x="710" width="100" height="40" as="geometry">
            <mxRectangle width="100" height="40" as="alternateBounds" />
          </mxGeometry>
        </mxCell>
        <mxCell id="jh5Hf_G05KwYfKJs7neM-51" value="composite key" style="shape=partialRectangle;whiteSpace=wrap;html=1;bottom=1;right=1;left=1;top=0;fillColor=none;routingCenterX=-0.5;direction=west;" vertex="1" parent="1">
          <mxGeometry x="120" y="280" width="120" height="20" as="geometry" />
        </mxCell>
        <mxCell id="jh5Hf_G05KwYfKJs7neM-55" value="" style="endArrow=none;html=1;rounded=0;" edge="1" parent="1">
          <mxGeometry width="50" height="50" relative="1" as="geometry">
            <mxPoint x="180" y="260" as="sourcePoint" />
            <mxPoint x="860" y="260" as="targetPoint" />
          </mxGeometry>
        </mxCell>
        <mxCell id="jh5Hf_G05KwYfKJs7neM-56" value="" style="endArrow=none;html=1;rounded=0;" edge="1" parent="1">
          <mxGeometry width="50" height="50" relative="1" as="geometry">
            <mxPoint x="179.5" y="260" as="sourcePoint" />
            <mxPoint x="180" y="280" as="targetPoint" />
            <Array as="points">
              <mxPoint x="179.5" y="280" />
            </Array>
          </mxGeometry>
        </mxCell>
        <mxCell id="jh5Hf_G05KwYfKJs7neM-59" value="" style="endArrow=classic;html=1;rounded=0;entryX=0.593;entryY=0.025;entryDx=0;entryDy=0;entryPerimeter=0;" edge="1" parent="1" target="jh5Hf_G05KwYfKJs7neM-42">
          <mxGeometry width="50" height="50" relative="1" as="geometry">
            <mxPoint x="570" y="260" as="sourcePoint" />
            <mxPoint x="570" y="290" as="targetPoint" />
          </mxGeometry>
        </mxCell>
        <mxCell id="jh5Hf_G05KwYfKJs7neM-60" value="" style="endArrow=classic;html=1;rounded=0;entryX=0.593;entryY=0.025;entryDx=0;entryDy=0;entryPerimeter=0;" edge="1" parent="1">
          <mxGeometry width="50" height="50" relative="1" as="geometry">
            <mxPoint x="860" y="259" as="sourcePoint" />
            <mxPoint x="860.3299999999999" y="300" as="targetPoint" />
          </mxGeometry>
        </mxCell>
        <mxCell id="jh5Hf_G05KwYfKJs7neM-61" value="" style="endArrow=classic;html=1;rounded=0;entryX=0.593;entryY=0.025;entryDx=0;entryDy=0;entryPerimeter=0;" edge="1" parent="1">
          <mxGeometry width="50" height="50" relative="1" as="geometry">
            <mxPoint x="760" y="259" as="sourcePoint" />
            <mxPoint x="760.3299999999999" y="300" as="targetPoint" />
            <Array as="points">
              <mxPoint x="760" y="289" />
            </Array>
          </mxGeometry>
        </mxCell>
        <mxCell id="jh5Hf_G05KwYfKJs7neM-62" value="" style="endArrow=classic;html=1;rounded=0;entryX=0.593;entryY=0.025;entryDx=0;entryDy=0;entryPerimeter=0;" edge="1" parent="1">
          <mxGeometry width="50" height="50" relative="1" as="geometry">
            <mxPoint x="670" y="259" as="sourcePoint" />
            <mxPoint x="670.3299999999999" y="300" as="targetPoint" />
            <Array as="points">
              <mxPoint x="670" y="279" />
            </Array>
          </mxGeometry>
        </mxCell>
        <mxCell id="jh5Hf_G05KwYfKJs7neM-63" value="" style="endArrow=classic;html=1;rounded=0;entryX=0.593;entryY=0.025;entryDx=0;entryDy=0;entryPerimeter=0;" edge="1" parent="1">
          <mxGeometry width="50" height="50" relative="1" as="geometry">
            <mxPoint x="460" y="259" as="sourcePoint" />
            <mxPoint x="460.3299999999999" y="300" as="targetPoint" />
          </mxGeometry>
        </mxCell>
        <mxCell id="jh5Hf_G05KwYfKJs7neM-64" value="" style="endArrow=classic;html=1;rounded=0;entryX=0.593;entryY=0.025;entryDx=0;entryDy=0;entryPerimeter=0;" edge="1" parent="1">
          <mxGeometry width="50" height="50" relative="1" as="geometry">
            <mxPoint x="320" y="259" as="sourcePoint" />
            <mxPoint x="320.3299999999999" y="300" as="targetPoint" />
          </mxGeometry>
        </mxCell>
        <mxCell id="jh5Hf_G05KwYfKJs7neM-69" value="" style="endArrow=classic;html=1;rounded=0;elbow=vertical;" edge="1" parent="1">
          <mxGeometry width="50" height="50" relative="1" as="geometry">
            <mxPoint x="660" y="380" as="sourcePoint" />
            <mxPoint x="660" y="340" as="targetPoint" />
          </mxGeometry>
        </mxCell>
        <mxCell id="jh5Hf_G05KwYfKJs7neM-70" value="" style="endArrow=none;html=1;rounded=0;elbow=vertical;" edge="1" parent="1">
          <mxGeometry width="50" height="50" relative="1" as="geometry">
            <mxPoint x="570" y="380" as="sourcePoint" />
            <mxPoint x="570" y="340" as="targetPoint" />
            <Array as="points">
              <mxPoint x="570" y="360" />
            </Array>
          </mxGeometry>
        </mxCell>
        <mxCell id="jh5Hf_G05KwYfKJs7neM-71" value="" style="endArrow=none;html=1;rounded=0;elbow=vertical;" edge="1" parent="1">
          <mxGeometry width="50" height="50" relative="1" as="geometry">
            <mxPoint x="570" y="380" as="sourcePoint" />
            <mxPoint x="660" y="380" as="targetPoint" />
          </mxGeometry>
        </mxCell>
        <mxCell id="jh5Hf_G05KwYfKJs7neM-72" value="" style="endArrow=none;html=1;rounded=0;elbow=vertical;" edge="1" parent="1">
          <mxGeometry width="50" height="50" relative="1" as="geometry">
            <mxPoint x="140" y="380" as="sourcePoint" />
            <mxPoint x="320" y="380" as="targetPoint" />
          </mxGeometry>
        </mxCell>
        <mxCell id="jh5Hf_G05KwYfKJs7neM-73" value="" style="endArrow=classic;html=1;rounded=0;elbow=vertical;" edge="1" parent="1">
          <mxGeometry width="50" height="50" relative="1" as="geometry">
            <mxPoint x="320" y="380" as="sourcePoint" />
            <mxPoint x="320" y="340" as="targetPoint" />
          </mxGeometry>
        </mxCell>
        <mxCell id="jh5Hf_G05KwYfKJs7neM-74" value="" style="endArrow=none;html=1;rounded=0;elbow=vertical;" edge="1" parent="1">
          <mxGeometry width="50" height="50" relative="1" as="geometry">
            <mxPoint x="140" y="380" as="sourcePoint" />
            <mxPoint x="140" y="340" as="targetPoint" />
            <Array as="points">
              <mxPoint x="140" y="360" />
            </Array>
          </mxGeometry>
        </mxCell>
        <mxCell id="jh5Hf_G05KwYfKJs7neM-75" value="" style="endArrow=none;html=1;rounded=0;elbow=vertical;" edge="1" parent="1">
          <mxGeometry width="50" height="50" relative="1" as="geometry">
            <mxPoint x="240" y="439" as="sourcePoint" />
            <mxPoint x="860" y="439" as="targetPoint" />
          </mxGeometry>
        </mxCell>
        <mxCell id="jh5Hf_G05KwYfKJs7neM-77" value="" style="endArrow=none;html=1;rounded=0;elbow=vertical;" edge="1" parent="1">
          <mxGeometry width="50" height="50" relative="1" as="geometry">
            <mxPoint x="240" y="440" as="sourcePoint" />
            <mxPoint x="240" y="340" as="targetPoint" />
          </mxGeometry>
        </mxCell>
        <mxCell id="jh5Hf_G05KwYfKJs7neM-78" value="" style="endArrow=classic;html=1;rounded=0;elbow=vertical;" edge="1" parent="1">
          <mxGeometry width="50" height="50" relative="1" as="geometry">
            <mxPoint x="440" y="440" as="sourcePoint" />
            <mxPoint x="440" y="340" as="targetPoint" />
          </mxGeometry>
        </mxCell>
        <mxCell id="jh5Hf_G05KwYfKJs7neM-80" value="" style="endArrow=classic;html=1;rounded=0;entryX=0.593;entryY=0.025;entryDx=0;entryDy=0;entryPerimeter=0;" edge="1" parent="1">
          <mxGeometry width="50" height="50" relative="1" as="geometry">
            <mxPoint x="550" y="440" as="sourcePoint" />
            <mxPoint x="550" y="340" as="targetPoint" />
            <Array as="points">
              <mxPoint x="550" y="367" />
            </Array>
          </mxGeometry>
        </mxCell>
        <mxCell id="jh5Hf_G05KwYfKJs7neM-83" value="" style="endArrow=classic;html=1;rounded=0;entryX=0.593;entryY=0.025;entryDx=0;entryDy=0;entryPerimeter=0;" edge="1" parent="1">
          <mxGeometry width="50" height="50" relative="1" as="geometry">
            <mxPoint x="860" y="440" as="sourcePoint" />
            <mxPoint x="860" y="340" as="targetPoint" />
            <Array as="points">
              <mxPoint x="860" y="367" />
            </Array>
          </mxGeometry>
        </mxCell>
        <mxCell id="jh5Hf_G05KwYfKJs7neM-84" value="" style="endArrow=classic;html=1;rounded=0;entryX=0.593;entryY=0.025;entryDx=0;entryDy=0;entryPerimeter=0;" edge="1" parent="1">
          <mxGeometry width="50" height="50" relative="1" as="geometry">
            <mxPoint x="680" y="440" as="sourcePoint" />
            <mxPoint x="680" y="340" as="targetPoint" />
            <Array as="points">
              <mxPoint x="680" y="367" />
            </Array>
          </mxGeometry>
        </mxCell>
        <mxCell id="jh5Hf_G05KwYfKJs7neM-85" value="Partial dependency" style="text;html=1;resizable=0;autosize=1;align=center;verticalAlign=middle;points=[];fillColor=none;strokeColor=none;rounded=0;" vertex="1" parent="1">
          <mxGeometry x="120" y="384" width="130" height="30" as="geometry" />
        </mxCell>
        <mxCell id="jh5Hf_G05KwYfKJs7neM-86" value="VEND_CODE" style="text;html=1;resizable=0;autosize=1;align=center;verticalAlign=middle;points=[];fillColor=none;strokeColor=none;rounded=0;" vertex="1" parent="1">
          <mxGeometry x="500" y="305" width="100" height="30" as="geometry" />
        </mxCell>
        <mxCell id="jh5Hf_G05KwYfKJs7neM-87" value="&lt;span style=&quot;color: rgb(0, 0, 0); font-family: Helvetica; font-size: 12px; font-style: normal; font-variant-ligatures: normal; font-variant-caps: normal; font-weight: 400; letter-spacing: normal; orphans: 2; text-align: center; text-indent: 0px; text-transform: none; widows: 2; word-spacing: 0px; -webkit-text-stroke-width: 0px; background-color: rgb(248, 249, 250); text-decoration-thickness: initial; text-decoration-style: initial; text-decoration-color: initial; float: none; display: inline !important;&quot;&gt;transitive dependency&lt;/span&gt;" style="text;whiteSpace=wrap;html=1;fontColor=#660000;" vertex="1" parent="1">
          <mxGeometry x="560" y="384" width="140" height="40" as="geometry" />
        </mxCell>
        <mxCell id="jh5Hf_G05KwYfKJs7neM-89" value="Partial dependencies" style="text;html=1;resizable=0;autosize=1;align=center;verticalAlign=middle;points=[];fillColor=none;strokeColor=none;rounded=0;" vertex="1" parent="1">
          <mxGeometry x="450" y="440" width="140" height="30" as="geometry" />
        </mxCell>
        <mxCell id="lQHNXKiX6WQyb5DlSrnI-1" value="Relational Schema :&amp;nbsp;&lt;u style=&quot;font-size: 12px;&quot;&gt;&lt;font color=&quot;#660000&quot;&gt;INV_NUM ,&amp;nbsp;&lt;/font&gt;&lt;/u&gt;&lt;u style=&quot;font-size: 12px;&quot;&gt;&lt;font color=&quot;#660000&quot;&gt;PROD_NUM,&lt;/font&gt;&lt;/u&gt;&lt;span style=&quot;font-size: 12px;&quot;&gt;SALE_DATE,&amp;nbsp;&lt;/span&gt;&lt;span style=&quot;font-size: 12px;&quot;&gt;PROD_LABEL,&amp;nbsp;&lt;/span&gt;&lt;span style=&quot;font-size: 12px;&quot;&gt;VEND_CODE,&amp;nbsp;&lt;/span&gt;&lt;span style=&quot;font-size: 12px;&quot;&gt;VEND_NAME,&amp;nbsp;&lt;/span&gt;&lt;span style=&quot;font-size: 12px;&quot;&gt;QUANT_SOLD,&amp;nbsp;&lt;/span&gt;&lt;span style=&quot;font-size: 12px;&quot;&gt;PROD_PRICE&lt;/span&gt;" style="text;html=1;resizable=0;autosize=1;align=center;verticalAlign=middle;points=[];fillColor=none;strokeColor=none;rounded=0;fontSize=15;fontColor=#000000;" vertex="1" parent="1">
          <mxGeometry x="100" y="220" width="790" height="30" as="geometry" />
        </mxCell>
        <mxCell id="lQHNXKiX6WQyb5DlSrnI-2" value="1NF" style="text;html=1;resizable=0;autosize=1;align=center;verticalAlign=middle;points=[];fillColor=none;strokeColor=none;rounded=0;fontSize=15;fontColor=#000000;" vertex="1" parent="1">
          <mxGeometry x="445" y="190" width="50" height="30" as="geometry" />
        </mxCell>
      </root>
    </mxGraphModel>
  </diagram>
  <diagram id="Wfbcd7sR8Cu0FpClHGkK" name="Page-2">
    <mxGraphModel dx="1398" dy="648" grid="1" gridSize="10" guides="1" tooltips="1" connect="1" arrows="1" fold="1" page="1" pageScale="1" pageWidth="1169" pageHeight="827" math="0" shadow="0">
      <root>
        <mxCell id="0" />
        <mxCell id="1" parent="0" />
        <mxCell id="U41GFrFdlKSrM7P1yvKl-1" value="" style="shape=table;startSize=0;container=1;collapsible=0;childLayout=tableLayout;fontColor=#660000;fillColor=#CCE5FF;" vertex="1" parent="1">
          <mxGeometry x="100" y="160" width="390" height="40" as="geometry" />
        </mxCell>
        <mxCell id="U41GFrFdlKSrM7P1yvKl-2" value="" style="shape=tableRow;horizontal=0;startSize=0;swimlaneHead=0;swimlaneBody=0;top=0;left=0;bottom=0;right=0;collapsible=0;dropTarget=0;fillColor=none;points=[[0,0.5],[1,0.5]];portConstraint=eastwest;fontColor=#660000;" vertex="1" parent="U41GFrFdlKSrM7P1yvKl-1">
          <mxGeometry width="390" height="40" as="geometry" />
        </mxCell>
        <mxCell id="U41GFrFdlKSrM7P1yvKl-3" value="&lt;u style=&quot;color: rgb(0, 0, 0);&quot;&gt;&lt;font color=&quot;#660000&quot;&gt;INV_NUM&lt;/font&gt;&lt;/u&gt;" style="shape=partialRectangle;html=1;whiteSpace=wrap;connectable=0;overflow=hidden;fillColor=none;top=0;left=0;bottom=0;right=0;pointerEvents=1;fontColor=#660000;" vertex="1" parent="U41GFrFdlKSrM7P1yvKl-2">
          <mxGeometry width="130" height="40" as="geometry">
            <mxRectangle width="130" height="40" as="alternateBounds" />
          </mxGeometry>
        </mxCell>
        <mxCell id="U41GFrFdlKSrM7P1yvKl-4" value="&lt;u style=&quot;color: rgb(0, 0, 0);&quot;&gt;&lt;font color=&quot;#660000&quot;&gt;PROD_NUM&lt;/font&gt;&lt;/u&gt;" style="shape=partialRectangle;html=1;whiteSpace=wrap;connectable=0;overflow=hidden;fillColor=none;top=0;left=0;bottom=0;right=0;pointerEvents=1;fontColor=#660000;" vertex="1" parent="U41GFrFdlKSrM7P1yvKl-2">
          <mxGeometry x="130" width="130" height="40" as="geometry">
            <mxRectangle width="130" height="40" as="alternateBounds" />
          </mxGeometry>
        </mxCell>
        <mxCell id="U41GFrFdlKSrM7P1yvKl-5" value="&lt;span style=&quot;color: rgb(0, 0, 0);&quot;&gt;QUANT_SOLD&lt;/span&gt;" style="shape=partialRectangle;html=1;whiteSpace=wrap;connectable=0;overflow=hidden;fillColor=none;top=0;left=0;bottom=0;right=0;pointerEvents=1;fontColor=#660000;" vertex="1" parent="U41GFrFdlKSrM7P1yvKl-2">
          <mxGeometry x="260" width="130" height="40" as="geometry">
            <mxRectangle width="130" height="40" as="alternateBounds" />
          </mxGeometry>
        </mxCell>
        <mxCell id="y9AFgwhQj7BOiKPgdI9T-1" value="composite key" style="shape=partialRectangle;whiteSpace=wrap;html=1;bottom=1;right=1;left=1;top=0;fillColor=none;routingCenterX=-0.5;direction=west;" vertex="1" parent="1">
          <mxGeometry x="180" y="140" width="120" height="20" as="geometry" />
        </mxCell>
        <mxCell id="FyuCoh52Tz-W9yhapsbp-1" value="" style="endArrow=classic;html=1;rounded=0;fontColor=#660000;edgeStyle=orthogonalEdgeStyle;entryX=0.872;entryY=-0.025;entryDx=0;entryDy=0;entryPerimeter=0;" edge="1" parent="1" target="U41GFrFdlKSrM7P1yvKl-2">
          <mxGeometry width="50" height="50" relative="1" as="geometry">
            <mxPoint x="230" y="140" as="sourcePoint" />
            <mxPoint x="500" y="140" as="targetPoint" />
            <Array as="points">
              <mxPoint x="230" y="120" />
              <mxPoint x="440" y="120" />
            </Array>
          </mxGeometry>
        </mxCell>
        <mxCell id="0TsjRmhg-BIWP-5p-VWq-1" value="&lt;b style=&quot;color: rgb(0, 0, 0); font-size: 15px;&quot;&gt;3NF&lt;/b&gt;" style="text;html=1;resizable=0;autosize=1;align=center;verticalAlign=middle;points=[];fillColor=none;strokeColor=none;rounded=0;fontColor=#660000;" vertex="1" parent="1">
          <mxGeometry x="300" y="60" width="50" height="30" as="geometry" />
        </mxCell>
        <mxCell id="T4Apt1iWOTeXYz6kmHcK-1" value="" style="shape=table;startSize=0;container=1;collapsible=0;childLayout=tableLayout;fontSize=15;fontColor=#000000;fillColor=#CCE5FF;" vertex="1" parent="1">
          <mxGeometry x="720" y="160" width="180" height="40" as="geometry" />
        </mxCell>
        <mxCell id="T4Apt1iWOTeXYz6kmHcK-2" value="" style="shape=tableRow;horizontal=0;startSize=0;swimlaneHead=0;swimlaneBody=0;top=0;left=0;bottom=0;right=0;collapsible=0;dropTarget=0;fillColor=none;points=[[0,0.5],[1,0.5]];portConstraint=eastwest;fontSize=15;fontColor=#000000;" vertex="1" parent="T4Apt1iWOTeXYz6kmHcK-1">
          <mxGeometry width="180" height="40" as="geometry" />
        </mxCell>
        <mxCell id="T4Apt1iWOTeXYz6kmHcK-3" value="&lt;u style=&quot;font-size: 12px;&quot;&gt;&lt;font color=&quot;#660000&quot;&gt;INV_NUM&lt;/font&gt;&lt;/u&gt;" style="shape=partialRectangle;html=1;whiteSpace=wrap;connectable=0;overflow=hidden;fillColor=none;top=0;left=0;bottom=0;right=0;pointerEvents=1;fontSize=15;fontColor=#000000;" vertex="1" parent="T4Apt1iWOTeXYz6kmHcK-2">
          <mxGeometry width="90" height="40" as="geometry">
            <mxRectangle width="90" height="40" as="alternateBounds" />
          </mxGeometry>
        </mxCell>
        <mxCell id="T4Apt1iWOTeXYz6kmHcK-4" value="&lt;span style=&quot;font-size: 12px;&quot;&gt;SALE_DATE&lt;/span&gt;" style="shape=partialRectangle;html=1;whiteSpace=wrap;connectable=0;overflow=hidden;fillColor=none;top=0;left=0;bottom=0;right=0;pointerEvents=1;fontSize=15;fontColor=#000000;" vertex="1" parent="T4Apt1iWOTeXYz6kmHcK-2">
          <mxGeometry x="90" width="90" height="40" as="geometry">
            <mxRectangle width="90" height="40" as="alternateBounds" />
          </mxGeometry>
        </mxCell>
        <mxCell id="Bs5GrB7o0OJb9JwcN0kD-6" value="&lt;font size=&quot;1&quot; color=&quot;#000000&quot;&gt;&lt;b style=&quot;font-size: 15px;&quot;&gt;3NF&lt;/b&gt;&lt;/font&gt;" style="text;html=1;resizable=0;autosize=1;align=center;verticalAlign=middle;points=[];fillColor=none;strokeColor=none;rounded=0;fontColor=#660000;" vertex="1" parent="1">
          <mxGeometry x="785" y="80" width="50" height="30" as="geometry" />
        </mxCell>
        <mxCell id="Bs5GrB7o0OJb9JwcN0kD-7" value="" style="endArrow=classic;html=1;rounded=0;fontColor=#660000;edgeStyle=orthogonalEdgeStyle;entryX=0.872;entryY=-0.025;entryDx=0;entryDy=0;entryPerimeter=0;" edge="1" parent="1" source="T4Apt1iWOTeXYz6kmHcK-2">
          <mxGeometry width="50" height="50" relative="1" as="geometry">
            <mxPoint x="650" y="141" as="sourcePoint" />
            <mxPoint x="860.0799999999999" y="160" as="targetPoint" />
            <Array as="points">
              <mxPoint x="770" y="140" />
              <mxPoint x="860" y="140" />
            </Array>
          </mxGeometry>
        </mxCell>
        <mxCell id="BU-STgx8aSdPQV3vsnzK-1" value="&lt;span style=&quot;color: rgb(0, 0, 0); font-family: Helvetica; font-size: 15px; font-style: normal; font-variant-ligatures: normal; font-variant-caps: normal; font-weight: 400; letter-spacing: normal; orphans: 2; text-align: center; text-indent: 0px; text-transform: none; widows: 2; word-spacing: 0px; -webkit-text-stroke-width: 0px; background-color: rgb(248, 249, 250); text-decoration-thickness: initial; text-decoration-style: initial; text-decoration-color: initial; float: none; display: inline !important;&quot;&gt;Relational Schema :&amp;nbsp;&lt;/span&gt;&lt;u style=&quot;color: rgb(0, 0, 0); font-family: Helvetica; font-style: normal; font-variant-ligatures: normal; font-variant-caps: normal; font-weight: 400; letter-spacing: normal; orphans: 2; text-align: center; text-indent: 0px; text-transform: none; widows: 2; word-spacing: 0px; -webkit-text-stroke-width: 0px; background-color: rgb(248, 249, 250); font-size: 12px;&quot;&gt;&lt;font color=&quot;#660000&quot;&gt;INV_NUM ,&amp;nbsp;&lt;/font&gt;&lt;/u&gt;&lt;u style=&quot;color: rgb(0, 0, 0); font-family: Helvetica; font-style: normal; font-variant-ligatures: normal; font-variant-caps: normal; font-weight: 400; letter-spacing: normal; orphans: 2; text-align: center; text-indent: 0px; text-transform: none; widows: 2; word-spacing: 0px; -webkit-text-stroke-width: 0px; background-color: rgb(248, 249, 250); font-size: 12px;&quot;&gt;&lt;font color=&quot;#660000&quot;&gt;PROD_NUM,&lt;/font&gt;&lt;/u&gt;&lt;span style=&quot;font-size: 12px; text-align: center;&quot;&gt;QUANT_SOLD&lt;/span&gt;" style="text;whiteSpace=wrap;html=1;fontSize=15;fontColor=#000000;" vertex="1" parent="1">
          <mxGeometry x="140" y="80" width="380" height="40" as="geometry" />
        </mxCell>
        <mxCell id="BU-STgx8aSdPQV3vsnzK-2" value="&lt;span style=&quot;color: rgb(0, 0, 0); font-family: Helvetica; font-size: 15px; font-style: normal; font-variant-ligatures: normal; font-variant-caps: normal; font-weight: 400; letter-spacing: normal; orphans: 2; text-align: center; text-indent: 0px; text-transform: none; widows: 2; word-spacing: 0px; -webkit-text-stroke-width: 0px; background-color: rgb(248, 249, 250); text-decoration-thickness: initial; text-decoration-style: initial; text-decoration-color: initial; float: none; display: inline !important;&quot;&gt;Relational Schema :&amp;nbsp;&lt;/span&gt;&lt;u style=&quot;color: rgb(0, 0, 0); font-family: Helvetica; font-style: normal; font-variant-ligatures: normal; font-variant-caps: normal; font-weight: 400; letter-spacing: normal; orphans: 2; text-align: center; text-indent: 0px; text-transform: none; widows: 2; word-spacing: 0px; -webkit-text-stroke-width: 0px; background-color: rgb(248, 249, 250); font-size: 12px;&quot;&gt;&lt;font color=&quot;#660000&quot;&gt;INV_NUM ,&amp;nbsp;&lt;/font&gt;&lt;/u&gt;&lt;span style=&quot;font-size: 12px; text-align: center;&quot;&gt;SALE_DATE&lt;/span&gt;" style="text;whiteSpace=wrap;html=1;fontSize=15;fontColor=#000000;" vertex="1" parent="1">
          <mxGeometry x="670" y="100" width="380" height="40" as="geometry" />
        </mxCell>
        <mxCell id="eFhWTGlSQRL46QFcP9IX-1" value="" style="shape=table;startSize=0;container=1;collapsible=0;childLayout=tableLayout;fillColor=#CCE5FF;" vertex="1" parent="1">
          <mxGeometry x="130" y="370" width="420" height="40" as="geometry" />
        </mxCell>
        <mxCell id="eFhWTGlSQRL46QFcP9IX-2" value="" style="shape=tableRow;horizontal=0;startSize=0;swimlaneHead=0;swimlaneBody=0;top=0;left=0;bottom=0;right=0;collapsible=0;dropTarget=0;fillColor=none;points=[[0,0.5],[1,0.5]];portConstraint=eastwest;" vertex="1" parent="eFhWTGlSQRL46QFcP9IX-1">
          <mxGeometry width="420" height="40" as="geometry" />
        </mxCell>
        <mxCell id="eFhWTGlSQRL46QFcP9IX-4" value="&lt;u&gt;&lt;font color=&quot;#660000&quot;&gt;PROD_NUM&lt;/font&gt;&lt;/u&gt;" style="shape=partialRectangle;html=1;whiteSpace=wrap;connectable=0;overflow=hidden;fillColor=none;top=0;left=0;bottom=0;right=0;pointerEvents=1;" vertex="1" parent="eFhWTGlSQRL46QFcP9IX-2">
          <mxGeometry width="90" height="40" as="geometry">
            <mxRectangle width="90" height="40" as="alternateBounds" />
          </mxGeometry>
        </mxCell>
        <mxCell id="eFhWTGlSQRL46QFcP9IX-5" value="PROD_LABEL" style="shape=partialRectangle;html=1;whiteSpace=wrap;connectable=0;overflow=hidden;fillColor=none;top=0;left=0;bottom=0;right=0;pointerEvents=1;" vertex="1" parent="eFhWTGlSQRL46QFcP9IX-2">
          <mxGeometry x="90" width="110" height="40" as="geometry">
            <mxRectangle width="110" height="40" as="alternateBounds" />
          </mxGeometry>
        </mxCell>
        <mxCell id="eFhWTGlSQRL46QFcP9IX-6" value="VEND_CODE" style="shape=partialRectangle;html=1;whiteSpace=wrap;connectable=0;overflow=hidden;fillColor=none;top=0;left=0;bottom=0;right=0;pointerEvents=1;" vertex="1" parent="eFhWTGlSQRL46QFcP9IX-2">
          <mxGeometry x="200" width="120" height="40" as="geometry">
            <mxRectangle width="120" height="40" as="alternateBounds" />
          </mxGeometry>
        </mxCell>
        <mxCell id="eFhWTGlSQRL46QFcP9IX-8" value="PROD_PRICE" style="shape=partialRectangle;html=1;whiteSpace=wrap;connectable=0;overflow=hidden;fillColor=none;top=0;left=0;bottom=0;right=0;pointerEvents=1;" vertex="1" parent="eFhWTGlSQRL46QFcP9IX-2">
          <mxGeometry x="320" width="100" height="40" as="geometry">
            <mxRectangle width="100" height="40" as="alternateBounds" />
          </mxGeometry>
        </mxCell>
        <mxCell id="oROBlfA4eq9kUOw9YBEX-3" value="&lt;div style=&quot;text-align: center;&quot;&gt;&lt;span style=&quot;background-color: initial;&quot;&gt;&lt;b&gt;3NF&lt;/b&gt;&lt;/span&gt;&lt;/div&gt;" style="text;whiteSpace=wrap;html=1;fontSize=15;fontColor=#000000;" vertex="1" parent="1">
          <mxGeometry x="360" y="310" width="50" height="40" as="geometry" />
        </mxCell>
        <mxCell id="oROBlfA4eq9kUOw9YBEX-4" value="&lt;span style=&quot;color: rgb(0, 0, 0); font-family: Helvetica; font-size: 15px; font-style: normal; font-variant-ligatures: normal; font-variant-caps: normal; font-weight: 400; letter-spacing: normal; orphans: 2; text-align: center; text-indent: 0px; text-transform: none; widows: 2; word-spacing: 0px; -webkit-text-stroke-width: 0px; background-color: rgb(248, 249, 250); text-decoration-thickness: initial; text-decoration-style: initial; text-decoration-color: initial; float: none; display: inline !important;&quot;&gt;Relational Schema :&amp;nbsp;&lt;/span&gt;&lt;u style=&quot;color: rgb(0, 0, 0); font-family: Helvetica; font-style: normal; font-variant-ligatures: normal; font-variant-caps: normal; font-weight: 400; letter-spacing: normal; orphans: 2; text-align: center; text-indent: 0px; text-transform: none; widows: 2; word-spacing: 0px; -webkit-text-stroke-width: 0px; background-color: rgb(248, 249, 250); font-size: 12px;&quot;&gt;&lt;font color=&quot;#660000&quot;&gt;PROD_NUM,&amp;nbsp;&lt;/font&gt;&lt;/u&gt;&lt;span style=&quot;font-size: 12px; text-align: center;&quot;&gt;PROD_LABEL,&amp;nbsp;&lt;/span&gt;&lt;span style=&quot;font-size: 12px; text-align: center;&quot;&gt;VEND_CODE,&amp;nbsp;&lt;/span&gt;&lt;span style=&quot;font-size: 12px; text-align: center;&quot;&gt;PROD_PRICE&lt;/span&gt;" style="text;whiteSpace=wrap;html=1;fontSize=15;fontColor=#000000;" vertex="1" parent="1">
          <mxGeometry x="120" y="340" width="589" height="40" as="geometry" />
        </mxCell>
        <mxCell id="oROBlfA4eq9kUOw9YBEX-6" value="&lt;span style=&quot;color: rgb(0, 0, 0); font-family: Helvetica; font-size: 15px; font-style: normal; font-variant-ligatures: normal; font-variant-caps: normal; font-weight: 400; letter-spacing: normal; orphans: 2; text-align: center; text-indent: 0px; text-transform: none; widows: 2; word-spacing: 0px; -webkit-text-stroke-width: 0px; background-color: rgb(248, 249, 250); text-decoration-thickness: initial; text-decoration-style: initial; text-decoration-color: initial; float: none; display: inline !important;&quot;&gt;Relational Schema :&amp;nbsp;&lt;/span&gt;&lt;span style=&quot;color: rgb(0, 0, 0); font-family: Helvetica; font-style: normal; font-variant-ligatures: normal; font-variant-caps: normal; font-weight: 400; letter-spacing: normal; orphans: 2; text-align: center; text-indent: 0px; text-transform: none; widows: 2; word-spacing: 0px; -webkit-text-stroke-width: 0px; background-color: rgb(248, 249, 250); text-decoration-thickness: initial; text-decoration-style: initial; text-decoration-color: initial; float: none; display: inline !important; font-size: 12px;&quot;&gt;&lt;u&gt;&lt;font color=&quot;#660000&quot;&gt;VEND_CODE&lt;/font&gt;&lt;/u&gt;, VEND_NAME&lt;/span&gt;" style="text;whiteSpace=wrap;html=1;fontSize=15;fontColor=#000000;" vertex="1" parent="1">
          <mxGeometry x="760" y="320" width="380" height="40" as="geometry" />
        </mxCell>
        <mxCell id="oROBlfA4eq9kUOw9YBEX-7" value="&lt;font size=&quot;1&quot; color=&quot;#000000&quot;&gt;&lt;b style=&quot;font-size: 15px;&quot;&gt;3NF&lt;/b&gt;&lt;/font&gt;" style="text;html=1;resizable=0;autosize=1;align=center;verticalAlign=middle;points=[];fillColor=none;strokeColor=none;rounded=0;fontColor=#660000;" vertex="1" parent="1">
          <mxGeometry x="870" y="290" width="50" height="30" as="geometry" />
        </mxCell>
        <mxCell id="oROBlfA4eq9kUOw9YBEX-9" value="" style="shape=table;startSize=0;container=1;collapsible=0;childLayout=tableLayout;fontSize=15;fontColor=#000000;fillColor=#CCE5FF;" vertex="1" parent="1">
          <mxGeometry x="805" y="380" width="180" height="40" as="geometry" />
        </mxCell>
        <mxCell id="oROBlfA4eq9kUOw9YBEX-10" value="" style="shape=tableRow;horizontal=0;startSize=0;swimlaneHead=0;swimlaneBody=0;top=0;left=0;bottom=0;right=0;collapsible=0;dropTarget=0;fillColor=none;points=[[0,0.5],[1,0.5]];portConstraint=eastwest;fontSize=15;fontColor=#000000;" vertex="1" parent="oROBlfA4eq9kUOw9YBEX-9">
          <mxGeometry width="180" height="40" as="geometry" />
        </mxCell>
        <mxCell id="oROBlfA4eq9kUOw9YBEX-11" value="&lt;u style=&quot;font-size: 12px;&quot;&gt;&lt;font color=&quot;#660000&quot;&gt;VEND_CODE&lt;/font&gt;&lt;/u&gt;" style="shape=partialRectangle;html=1;whiteSpace=wrap;connectable=0;overflow=hidden;fillColor=none;top=0;left=0;bottom=0;right=0;pointerEvents=1;fontSize=15;fontColor=#000000;" vertex="1" parent="oROBlfA4eq9kUOw9YBEX-10">
          <mxGeometry width="90" height="40" as="geometry">
            <mxRectangle width="90" height="40" as="alternateBounds" />
          </mxGeometry>
        </mxCell>
        <mxCell id="oROBlfA4eq9kUOw9YBEX-12" value="&lt;span style=&quot;font-size: 12px;&quot;&gt;VEND_NAME&lt;/span&gt;" style="shape=partialRectangle;html=1;whiteSpace=wrap;connectable=0;overflow=hidden;fillColor=none;top=0;left=0;bottom=0;right=0;pointerEvents=1;fontSize=15;fontColor=#000000;" vertex="1" parent="oROBlfA4eq9kUOw9YBEX-10">
          <mxGeometry x="90" width="90" height="40" as="geometry">
            <mxRectangle width="90" height="40" as="alternateBounds" />
          </mxGeometry>
        </mxCell>
        <mxCell id="oROBlfA4eq9kUOw9YBEX-13" value="" style="endArrow=classic;html=1;rounded=0;fontColor=#660000;edgeStyle=orthogonalEdgeStyle;entryX=0.872;entryY=-0.025;entryDx=0;entryDy=0;entryPerimeter=0;" edge="1" parent="1">
          <mxGeometry width="50" height="50" relative="1" as="geometry">
            <mxPoint x="849.95" y="380" as="sourcePoint" />
            <mxPoint x="940.03" y="380" as="targetPoint" />
            <Array as="points">
              <mxPoint x="849.95" y="360" />
              <mxPoint x="939.95" y="360" />
            </Array>
          </mxGeometry>
        </mxCell>
      </root>
    </mxGraphModel>
  </diagram>
  <diagram id="jdcPNAVFBkz9-Ku1SvJf" name="Page-3">
    <mxGraphModel dx="1398" dy="648" grid="1" gridSize="10" guides="1" tooltips="1" connect="1" arrows="1" fold="1" page="1" pageScale="1" pageWidth="1169" pageHeight="827" math="0" shadow="0">
      <root>
        <mxCell id="0" />
        <mxCell id="1" parent="0" />
      </root>
    </mxGraphModel>
  </diagram>
</mxfile>
